<?xml version="1.0" encoding="UTF-8" standalone="no"?>
<!DOCTYPE svg PUBLIC "-//W3C//DTD SVG 1.1//EN"
 "http://www.w3.org/Graphics/SVG/1.1/DTD/svg11.dtd">
<!-- Generated by graphviz version 2.40.1 (20161225.0304)
 -->
<!-- Title: %3 Pages: 1 -->
<svg width="1745pt" height="620pt"
 viewBox="0.00 0.00 1744.67 620.00" xmlns="http://www.w3.org/2000/svg" xmlns:xlink="http://www.w3.org/1999/xlink">
<g id="graph0" class="graph" transform="scale(1 1) rotate(0) translate(4 616)">
<title>%3</title>
<polygon fill="#ffffff" stroke="transparent" points="-4,4 -4,-616 1740.6713,-616 1740.6713,4 -4,4"/>
<!-- QM -->
<g id="node1" class="node">
<title>QM</title>
<ellipse fill="none" stroke="#000000" cx="186.5116" cy="-594" rx="83.5722" ry="18"/>
<text text-anchor="middle" x="186.5116" y="-589.8" font-family="Times,serif" font-size="14.00" fill="#000000">Quantum Mechanics</text>
</g>
<!-- Particles -->
<g id="node3" class="node">
<title>Particles</title>
<ellipse fill="none" stroke="#000000" cx="280.5116" cy="-522" rx="114.9259" ry="18"/>
<text text-anchor="middle" x="280.5116" y="-517.8" font-family="Times,serif" font-size="14.00" fill="#000000">Non&#45;conserved particle count</text>
</g>
<!-- QM&#45;&gt;Particles -->
<g id="edge1" class="edge">
<title>QM&#45;&gt;Particles</title>
<path fill="none" stroke="#000000" d="M209.2664,-576.5708C221.2116,-567.4213 236.0341,-556.0679 249.0607,-546.0901"/>
<polygon fill="#000000" stroke="#000000" points="251.5029,-548.6283 257.3134,-539.7689 247.2463,-543.0711 251.5029,-548.6283"/>
</g>
<!-- UncertaintyP -->
<g id="node2" class="node">
<title>UncertaintyP</title>
<ellipse fill="none" stroke="#000000" cx="374.5116" cy="-594" rx="85.9775" ry="18"/>
<text text-anchor="middle" x="374.5116" y="-589.8" font-family="Times,serif" font-size="14.00" fill="#000000">Uncertainty Principle</text>
</g>
<!-- UncertaintyP&#45;&gt;Particles -->
<g id="edge2" class="edge">
<title>UncertaintyP&#45;&gt;Particles</title>
<path fill="none" stroke="#000000" d="M351.7569,-576.5708C339.8116,-567.4213 324.9891,-556.0679 311.9626,-546.0901"/>
<polygon fill="#000000" stroke="#000000" points="313.777,-543.0711 303.7099,-539.7689 309.5204,-548.6283 313.777,-543.0711"/>
</g>
<!-- CreationAnn -->
<g id="node4" class="node">
<title>CreationAnn</title>
<ellipse fill="none" stroke="#000000" cx="409.5116" cy="-450" rx="120.2555" ry="18"/>
<text text-anchor="middle" x="409.5116" y="-445.8" font-family="Times,serif" font-size="14.00" fill="#000000">Creation annihilation operators</text>
</g>
<!-- Particles&#45;&gt;CreationAnn -->
<g id="edge3" class="edge">
<title>Particles&#45;&gt;CreationAnn</title>
<path fill="none" stroke="#000000" d="M311.7389,-504.5708C329.0406,-494.914 350.7409,-482.8023 369.2996,-472.4439"/>
<polygon fill="#000000" stroke="#000000" points="371.0986,-475.4481 378.1248,-467.5182 367.687,-469.3358 371.0986,-475.4481"/>
</g>
<!-- Fields -->
<g id="node28" class="node">
<title>Fields</title>
<ellipse fill="none" stroke="#000000" cx="523.5116" cy="-378" rx="66.7022" ry="18"/>
<text text-anchor="middle" x="523.5116" y="-373.8" font-family="Times,serif" font-size="14.00" fill="#000000">Quantum Fields</text>
</g>
<!-- CreationAnn&#45;&gt;Fields -->
<g id="edge6" class="edge">
<title>CreationAnn&#45;&gt;Fields</title>
<path fill="none" stroke="#000000" d="M437.3992,-432.3868C452.7496,-422.6918 471.9507,-410.5648 488.324,-400.2238"/>
<polygon fill="#000000" stroke="#000000" points="490.501,-402.9885 497.0869,-394.6893 486.763,-397.0701 490.501,-402.9885"/>
</g>
<!-- LG -->
<g id="node5" class="node">
<title>LG</title>
<ellipse fill="none" stroke="#000000" cx="378.5116" cy="-306" rx="121.2158" ry="18"/>
<text text-anchor="middle" x="378.5116" y="-301.8" font-family="Times,serif" font-size="14.00" fill="#000000">Lorentz Group Representations</text>
</g>
<!-- Spin -->
<g id="node31" class="node">
<title>Spin</title>
<ellipse fill="none" stroke="#000000" cx="360.5116" cy="-234" rx="27" ry="18"/>
<text text-anchor="middle" x="360.5116" y="-229.8" font-family="Times,serif" font-size="14.00" fill="#000000">Spin</text>
</g>
<!-- LG&#45;&gt;Spin -->
<g id="edge28" class="edge">
<title>LG&#45;&gt;Spin</title>
<path fill="none" stroke="#000000" d="M373.9695,-287.8314C371.9933,-279.9266 369.6334,-270.4872 367.4458,-261.7365"/>
<polygon fill="#000000" stroke="#000000" points="370.8109,-260.7659 364.99,-251.9134 364.0199,-262.4637 370.8109,-260.7659"/>
</g>
<!-- Scalar -->
<g id="node32" class="node">
<title>Scalar</title>
<ellipse fill="none" stroke="#000000" cx="459.5116" cy="-234" rx="53.6543" ry="18"/>
<text text-anchor="middle" x="459.5116" y="-229.8" font-family="Times,serif" font-size="14.00" fill="#000000">Scalar fields</text>
</g>
<!-- LG&#45;&gt;Scalar -->
<g id="edge29" class="edge">
<title>LG&#45;&gt;Scalar</title>
<path fill="none" stroke="#000000" d="M398.5341,-288.2022C408.8635,-279.0206 421.6045,-267.6952 432.7645,-257.7752"/>
<polygon fill="#000000" stroke="#000000" points="435.4055,-260.1106 440.5543,-250.851 430.7549,-254.8787 435.4055,-260.1106"/>
</g>
<!-- Cluster -->
<g id="node6" class="node">
<title>Cluster</title>
<ellipse fill="none" stroke="#000000" cx="539.5116" cy="-522" rx="126.0783" ry="18"/>
<text text-anchor="middle" x="539.5116" y="-517.8" font-family="Times,serif" font-size="14.00" fill="#000000">Cluster Decomposition Principle</text>
</g>
<!-- Cluster&#45;&gt;CreationAnn -->
<g id="edge4" class="edge">
<title>Cluster&#45;&gt;CreationAnn</title>
<path fill="none" stroke="#000000" d="M507.7101,-504.3868C490.2686,-494.7269 468.4678,-482.6527 449.841,-472.3363"/>
<polygon fill="#000000" stroke="#000000" points="451.4286,-469.2146 440.9849,-467.4313 448.0371,-475.3382 451.4286,-469.2146"/>
</g>
<!-- Diagrams -->
<g id="node7" class="node">
<title>Diagrams</title>
<ellipse fill="none" stroke="#000000" cx="949.5116" cy="-234" rx="77.7927" ry="18"/>
<text text-anchor="middle" x="949.5116" y="-229.8" font-family="Times,serif" font-size="14.00" fill="#000000">Feynman diagrams</text>
</g>
<!-- PathI -->
<g id="node8" class="node">
<title>PathI</title>
<ellipse fill="none" stroke="#000000" cx="1309.5116" cy="-306" rx="55.5751" ry="18"/>
<text text-anchor="middle" x="1309.5116" y="-301.8" font-family="Times,serif" font-size="14.00" fill="#000000">Path Integral</text>
</g>
<!-- PathI&#45;&gt;Diagrams -->
<g id="edge22" class="edge">
<title>PathI&#45;&gt;Diagrams</title>
<path fill="none" stroke="#000000" d="M1266.6792,-294.4974C1257.729,-292.2313 1248.3327,-289.9531 1239.5116,-288 1166.1293,-271.7525 1081.5756,-256.3866 1022.7764,-246.2313"/>
<polygon fill="#000000" stroke="#000000" points="1023.2859,-242.7676 1012.8373,-244.5219 1022.0994,-249.6663 1023.2859,-242.7676"/>
</g>
<!-- Causality -->
<g id="node9" class="node">
<title>Causality</title>
<ellipse fill="none" stroke="#000000" cx="43.5116" cy="-378" rx="43.5233" ry="18"/>
<text text-anchor="middle" x="43.5116" y="-373.8" font-family="Times,serif" font-size="14.00" fill="#000000">Causality</text>
</g>
<!-- SpinStat -->
<g id="node11" class="node">
<title>SpinStat</title>
<ellipse fill="none" stroke="#000000" cx="144.5116" cy="-306" rx="95.3644" ry="18"/>
<text text-anchor="middle" x="144.5116" y="-301.8" font-family="Times,serif" font-size="14.00" fill="#000000">Spin&#45;Statistics Theorem</text>
</g>
<!-- Causality&#45;&gt;SpinStat -->
<g id="edge23" class="edge">
<title>Causality&#45;&gt;SpinStat</title>
<path fill="none" stroke="#000000" d="M65.4271,-362.3771C78.8128,-352.8348 96.1937,-340.4445 111.251,-329.7106"/>
<polygon fill="#000000" stroke="#000000" points="113.6891,-332.2708 119.8002,-323.6161 109.6257,-326.5709 113.6891,-332.2708"/>
</g>
<!-- EnergyBound -->
<g id="node10" class="node">
<title>EnergyBound</title>
<ellipse fill="none" stroke="#000000" cx="246.5116" cy="-378" rx="141.1938" ry="18"/>
<text text-anchor="middle" x="246.5116" y="-373.8" font-family="Times,serif" font-size="14.00" fill="#000000">Energy must be bounded from below</text>
</g>
<!-- EnergyBound&#45;&gt;SpinStat -->
<g id="edge24" class="edge">
<title>EnergyBound&#45;&gt;SpinStat</title>
<path fill="none" stroke="#000000" d="M221.2981,-360.2022C208.2051,-350.9601 192.0349,-339.5459 177.9156,-329.5792"/>
<polygon fill="#000000" stroke="#000000" points="179.6232,-326.5005 169.4351,-323.593 175.5864,-332.2193 179.6232,-326.5005"/>
</g>
<!-- Bosons -->
<g id="node29" class="node">
<title>Bosons</title>
<ellipse fill="none" stroke="#000000" cx="201.5116" cy="-162" rx="36.3078" ry="18"/>
<text text-anchor="middle" x="201.5116" y="-157.8" font-family="Times,serif" font-size="14.00" fill="#000000">Bosons</text>
</g>
<!-- SpinStat&#45;&gt;Bosons -->
<g id="edge26" class="edge">
<title>SpinStat&#45;&gt;Bosons</title>
<path fill="none" stroke="#000000" d="M151.7307,-287.7623C161.5385,-262.9846 179.1584,-218.4714 190.5891,-189.5939"/>
<polygon fill="#000000" stroke="#000000" points="193.9249,-190.6759 194.3512,-180.0896 187.4163,-188.0995 193.9249,-190.6759"/>
</g>
<!-- Fermions -->
<g id="node30" class="node">
<title>Fermions</title>
<ellipse fill="none" stroke="#000000" cx="271.5116" cy="-234" rx="43.5319" ry="18"/>
<text text-anchor="middle" x="271.5116" y="-229.8" font-family="Times,serif" font-size="14.00" fill="#000000">Fermions</text>
</g>
<!-- SpinStat&#45;&gt;Fermions -->
<g id="edge27" class="edge">
<title>SpinStat&#45;&gt;Fermions</title>
<path fill="none" stroke="#000000" d="M174.9313,-288.7542C193.5561,-278.1953 217.4486,-264.6499 236.8095,-253.6736"/>
<polygon fill="#000000" stroke="#000000" points="238.6552,-256.6507 245.6283,-248.674 235.2029,-250.5612 238.6552,-256.6507"/>
</g>
<!-- Lagrangian -->
<g id="node12" class="node">
<title>Lagrangian</title>
<ellipse fill="none" stroke="#000000" cx="1309.5116" cy="-378" rx="90.7798" ry="18"/>
<text text-anchor="middle" x="1309.5116" y="-373.8" font-family="Times,serif" font-size="14.00" fill="#000000">Lagrangian Mechanics</text>
</g>
<!-- Lagrangian&#45;&gt;Diagrams -->
<g id="edge15" class="edge">
<title>Lagrangian&#45;&gt;Diagrams</title>
<path fill="none" stroke="#000000" d="M1287.5461,-360.3481C1274.8076,-349.9641 1258.5576,-336.4641 1244.5116,-324 1227.1106,-308.5586 1227.1176,-298.7996 1206.5116,-288 1175.5588,-271.7776 1089.519,-255.6201 1025.4664,-245.2669"/>
<polygon fill="#000000" stroke="#000000" points="1025.814,-241.7781 1015.3869,-243.656 1024.7092,-248.6904 1025.814,-241.7781"/>
</g>
<!-- Lagrangian&#45;&gt;PathI -->
<g id="edge21" class="edge">
<title>Lagrangian&#45;&gt;PathI</title>
<path fill="none" stroke="#000000" d="M1309.5116,-359.8314C1309.5116,-352.131 1309.5116,-342.9743 1309.5116,-334.4166"/>
<polygon fill="#000000" stroke="#000000" points="1313.0117,-334.4132 1309.5116,-324.4133 1306.0117,-334.4133 1313.0117,-334.4132"/>
</g>
<!-- Noether -->
<g id="node14" class="node">
<title>Noether</title>
<ellipse fill="none" stroke="#000000" cx="1455.5116" cy="-306" rx="72.6277" ry="18"/>
<text text-anchor="middle" x="1455.5116" y="-301.8" font-family="Times,serif" font-size="14.00" fill="#000000">Noether Theorem</text>
</g>
<!-- Lagrangian&#45;&gt;Noether -->
<g id="edge19" class="edge">
<title>Lagrangian&#45;&gt;Noether</title>
<path fill="none" stroke="#000000" d="M1343.7421,-361.1192C1364.5391,-350.8632 1391.2502,-337.6906 1413.3446,-326.7947"/>
<polygon fill="#000000" stroke="#000000" points="1415.0796,-329.8416 1422.5003,-322.2796 1411.9835,-323.5635 1415.0796,-329.8416"/>
</g>
<!-- CFT -->
<g id="node13" class="node">
<title>CFT</title>
<ellipse fill="none" stroke="#000000" cx="637.5116" cy="-450" rx="90.0351" ry="18"/>
<text text-anchor="middle" x="637.5116" y="-445.8" font-family="Times,serif" font-size="14.00" fill="#000000">Classical Field Theory</text>
</g>
<!-- CFT&#45;&gt;Fields -->
<g id="edge5" class="edge">
<title>CFT&#45;&gt;Fields</title>
<path fill="none" stroke="#000000" d="M610.2058,-432.7542C594.755,-422.9958 575.2655,-410.6866 558.6807,-400.212"/>
<polygon fill="#000000" stroke="#000000" points="560.1337,-396.9901 549.8098,-394.6094 556.3957,-402.9086 560.1337,-396.9901"/>
</g>
<!-- Charge -->
<g id="node22" class="node">
<title>Charge</title>
<ellipse fill="none" stroke="#000000" cx="1267.5116" cy="-234" rx="35.4772" ry="18"/>
<text text-anchor="middle" x="1267.5116" y="-229.8" font-family="Times,serif" font-size="14.00" fill="#000000">Charge</text>
</g>
<!-- Noether&#45;&gt;Charge -->
<g id="edge20" class="edge">
<title>Noether&#45;&gt;Charge</title>
<path fill="none" stroke="#000000" d="M1415.6417,-290.7307C1383.1143,-278.2734 1337.4691,-260.7922 1305.4703,-248.5374"/>
<polygon fill="#000000" stroke="#000000" points="1306.5977,-245.2213 1296.0073,-244.9132 1304.0941,-251.7583 1306.5977,-245.2213"/>
</g>
<!-- CrossSec -->
<g id="node15" class="node">
<title>CrossSec</title>
<ellipse fill="none" stroke="#000000" cx="1135.5116" cy="-306" rx="62.3672" ry="18"/>
<text text-anchor="middle" x="1135.5116" y="-301.8" font-family="Times,serif" font-size="14.00" fill="#000000">Cross Sections</text>
</g>
<!-- SMatrix -->
<g id="node16" class="node">
<title>SMatrix</title>
<ellipse fill="none" stroke="#000000" cx="1045.5116" cy="-378" rx="41.1093" ry="18"/>
<text text-anchor="middle" x="1045.5116" y="-373.8" font-family="Times,serif" font-size="14.00" fill="#000000">S&#45;matrix</text>
</g>
<!-- SMatrix&#45;&gt;Diagrams -->
<g id="edge16" class="edge">
<title>SMatrix&#45;&gt;Diagrams</title>
<path fill="none" stroke="#000000" d="M1045.5055,-359.9514C1044.6822,-340.644 1040.9436,-309.8546 1026.5116,-288 1017.9584,-275.0477 1005.1398,-264.2686 992.403,-255.8348"/>
<polygon fill="#000000" stroke="#000000" points="993.9881,-252.6984 983.6517,-250.3727 990.2818,-258.6367 993.9881,-252.6984"/>
</g>
<!-- SMatrix&#45;&gt;CrossSec -->
<g id="edge8" class="edge">
<title>SMatrix&#45;&gt;CrossSec</title>
<path fill="none" stroke="#000000" d="M1065.4855,-362.0209C1077.4936,-352.4145 1092.9876,-340.0192 1106.3473,-329.3315"/>
<polygon fill="#000000" stroke="#000000" points="1108.7173,-331.9177 1114.3395,-322.9377 1104.3444,-326.4516 1108.7173,-331.9177"/>
</g>
<!-- LSZ -->
<g id="node24" class="node">
<title>LSZ</title>
<ellipse fill="none" stroke="#000000" cx="802.5116" cy="-306" rx="61.3722" ry="18"/>
<text text-anchor="middle" x="802.5116" y="-301.8" font-family="Times,serif" font-size="14.00" fill="#000000">LSZ reduction</text>
</g>
<!-- SMatrix&#45;&gt;LSZ -->
<g id="edge7" class="edge">
<title>SMatrix&#45;&gt;LSZ</title>
<path fill="none" stroke="#000000" d="M1011.4677,-367.9129C970.9818,-355.9171 902.9359,-335.7553 855.5356,-321.7108"/>
<polygon fill="#000000" stroke="#000000" points="856.334,-318.297 845.7517,-318.8119 854.3453,-325.0086 856.334,-318.297"/>
</g>
<!-- Prop -->
<g id="node17" class="node">
<title>Prop</title>
<ellipse fill="none" stroke="#000000" cx="639.5116" cy="-306" rx="84.0654" ry="18"/>
<text text-anchor="middle" x="639.5116" y="-301.8" font-family="Times,serif" font-size="14.00" fill="#000000">Feynman Propagator</text>
</g>
<!-- Prop&#45;&gt;Diagrams -->
<g id="edge13" class="edge">
<title>Prop&#45;&gt;Diagrams</title>
<path fill="none" stroke="#000000" d="M696.7317,-292.7102C749.8461,-280.3739 828.8519,-262.0242 884.3671,-249.1303"/>
<polygon fill="#000000" stroke="#000000" points="885.4992,-252.4606 894.4481,-246.7889 883.9155,-245.6421 885.4992,-252.4606"/>
</g>
<!-- TimeOrd -->
<g id="node18" class="node">
<title>TimeOrd</title>
<ellipse fill="none" stroke="#000000" cx="721.5116" cy="-378" rx="63.1639" ry="18"/>
<text text-anchor="middle" x="721.5116" y="-373.8" font-family="Times,serif" font-size="14.00" fill="#000000">Time&#45;Ordering</text>
</g>
<!-- TimeOrd&#45;&gt;Diagrams -->
<g id="edge18" class="edge">
<title>TimeOrd&#45;&gt;Diagrams</title>
<path fill="none" stroke="#000000" d="M665.1357,-369.6256C600.385,-357.7238 507.7613,-332.289 546.5116,-288 567.1054,-264.4627 752.3118,-247.6353 864.3538,-239.5073"/>
<polygon fill="#000000" stroke="#000000" points="864.9017,-242.9772 874.626,-238.7716 864.4015,-235.995 864.9017,-242.9772"/>
</g>
<!-- TimeOrd&#45;&gt;Prop -->
<g id="edge11" class="edge">
<title>TimeOrd&#45;&gt;Prop</title>
<path fill="none" stroke="#000000" d="M701.6617,-360.5708C691.2636,-351.4408 678.3663,-340.1163 667.0203,-330.1539"/>
<polygon fill="#000000" stroke="#000000" points="669.2867,-327.4862 659.463,-323.5182 664.6681,-332.7463 669.2867,-327.4862"/>
</g>
<!-- Wick -->
<g id="node19" class="node">
<title>Wick</title>
<ellipse fill="none" stroke="#000000" cx="949.5116" cy="-306" rx="67.8352" ry="18"/>
<text text-anchor="middle" x="949.5116" y="-301.8" font-family="Times,serif" font-size="14.00" fill="#000000">Wick&#39;s Theorem</text>
</g>
<!-- TimeOrd&#45;&gt;Wick -->
<g id="edge12" class="edge">
<title>TimeOrd&#45;&gt;Wick</title>
<path fill="none" stroke="#000000" d="M764.1292,-364.5418C801.3987,-352.7725 855.7003,-335.6246 895.9085,-322.9273"/>
<polygon fill="#000000" stroke="#000000" points="897.0675,-326.2317 905.5494,-319.8828 894.9595,-319.5567 897.0675,-326.2317"/>
</g>
<!-- TimeOrd&#45;&gt;LSZ -->
<g id="edge10" class="edge">
<title>TimeOrd&#45;&gt;LSZ</title>
<path fill="none" stroke="#000000" d="M741.1195,-360.5708C751.4668,-351.3732 764.3197,-339.9484 775.5873,-329.9328"/>
<polygon fill="#000000" stroke="#000000" points="777.9355,-332.5283 783.0844,-323.2687 773.285,-327.2964 777.9355,-332.5283"/>
</g>
<!-- Wick&#45;&gt;Diagrams -->
<g id="edge17" class="edge">
<title>Wick&#45;&gt;Diagrams</title>
<path fill="none" stroke="#000000" d="M949.5116,-287.8314C949.5116,-280.131 949.5116,-270.9743 949.5116,-262.4166"/>
<polygon fill="#000000" stroke="#000000" points="953.0117,-262.4132 949.5116,-252.4133 946.0117,-262.4133 953.0117,-262.4132"/>
</g>
<!-- Gauge -->
<g id="node20" class="node">
<title>Gauge</title>
<ellipse fill="none" stroke="#000000" cx="1490.5116" cy="-234" rx="72.9218" ry="18"/>
<text text-anchor="middle" x="1490.5116" y="-229.8" font-family="Times,serif" font-size="14.00" fill="#000000">Gauge Invariance</text>
</g>
<!-- Ward -->
<g id="node21" class="node">
<title>Ward</title>
<ellipse fill="none" stroke="#000000" cx="1404.5116" cy="-162" rx="58.0427" ry="18"/>
<text text-anchor="middle" x="1404.5116" y="-157.8" font-family="Times,serif" font-size="14.00" fill="#000000">Ward identity</text>
</g>
<!-- Gauge&#45;&gt;Ward -->
<g id="edge36" class="edge">
<title>Gauge&#45;&gt;Ward</title>
<path fill="none" stroke="#000000" d="M1469.6934,-216.5708C1458.6266,-207.3055 1444.8603,-195.7802 1432.8344,-185.7121"/>
<polygon fill="#000000" stroke="#000000" points="1434.7557,-182.756 1424.8414,-179.0202 1430.2622,-188.1233 1434.7557,-182.756"/>
</g>
<!-- QED -->
<g id="node25" class="node">
<title>QED</title>
<ellipse fill="none" stroke="#000000" cx="1171.5116" cy="-90" rx="28.0651" ry="18"/>
<text text-anchor="middle" x="1171.5116" y="-85.8" font-family="Times,serif" font-size="14.00" fill="#000000">QED</text>
</g>
<!-- Gauge&#45;&gt;QED -->
<g id="edge37" class="edge">
<title>Gauge&#45;&gt;QED</title>
<path fill="none" stroke="#000000" d="M1492.2407,-215.9302C1493.1167,-195.4106 1491.0351,-162.4012 1471.5116,-144 1432.2661,-107.0104 1284.1397,-119.7782 1231.5116,-108 1223.2876,-106.1594 1214.5446,-103.7838 1206.3505,-101.3658"/>
<polygon fill="#000000" stroke="#000000" points="1207.2853,-97.9918 1196.6995,-98.4283 1205.247,-104.6885 1207.2853,-97.9918"/>
</g>
<!-- MinimalCoup -->
<g id="node33" class="node">
<title>MinimalCoup</title>
<ellipse fill="none" stroke="#000000" cx="1252.5116" cy="-162" rx="75.898" ry="18"/>
<text text-anchor="middle" x="1252.5116" y="-157.8" font-family="Times,serif" font-size="14.00" fill="#000000">Minimal Coupling</text>
</g>
<!-- Gauge&#45;&gt;MinimalCoup -->
<g id="edge39" class="edge">
<title>Gauge&#45;&gt;MinimalCoup</title>
<path fill="none" stroke="#000000" d="M1444.3406,-220.0323C1405.6704,-208.3338 1350.3285,-191.5917 1309.0164,-179.0939"/>
<polygon fill="#000000" stroke="#000000" points="1309.952,-175.7203 1299.3669,-176.1747 1307.925,-182.4204 1309.952,-175.7203"/>
</g>
<!-- NonAbelian -->
<g id="node37" class="node">
<title>NonAbelian</title>
<ellipse fill="none" stroke="#000000" cx="1627.5116" cy="-162" rx="109.3196" ry="18"/>
<text text-anchor="middle" x="1627.5116" y="-157.8" font-family="Times,serif" font-size="14.00" fill="#000000">Non&#45;Abelian Gauge Theory</text>
</g>
<!-- Gauge&#45;&gt;NonAbelian -->
<g id="edge42" class="edge">
<title>Gauge&#45;&gt;NonAbelian</title>
<path fill="none" stroke="#000000" d="M1521.5991,-217.6621C1540.5796,-207.6869 1565.0883,-194.8064 1585.7482,-183.9487"/>
<polygon fill="#000000" stroke="#000000" points="1587.4131,-187.0277 1594.6368,-179.2773 1584.1566,-180.8313 1587.4131,-187.0277"/>
</g>
<!-- Charge&#45;&gt;QED -->
<g id="edge38" class="edge">
<title>Charge&#45;&gt;QED</title>
<path fill="none" stroke="#000000" d="M1235.1955,-226.0476C1211.8877,-218.4368 1182.0665,-204.401 1167.5116,-180 1156.3572,-161.2997 1158.5178,-136.3218 1162.8102,-117.4246"/>
<polygon fill="#000000" stroke="#000000" points="1166.2279,-118.188 1165.3433,-107.6302 1159.4509,-116.4353 1166.2279,-118.188"/>
</g>
<!-- Dirac -->
<g id="node23" class="node">
<title>Dirac</title>
<ellipse fill="none" stroke="#000000" cx="320.5116" cy="-162" rx="62.3154" ry="18"/>
<text text-anchor="middle" x="320.5116" y="-157.8" font-family="Times,serif" font-size="14.00" fill="#000000">Dirac equation</text>
</g>
<!-- Dirac&#45;&gt;QED -->
<g id="edge35" class="edge">
<title>Dirac&#45;&gt;QED</title>
<path fill="none" stroke="#000000" d="M365.3299,-149.3464C373.9613,-147.2772 382.9732,-145.3666 391.5116,-144 536.8569,-120.7373 995.7463,-98.1337 1132.6116,-91.7682"/>
<polygon fill="#000000" stroke="#000000" points="1133.1824,-95.2456 1143.0099,-91.2871 1132.8588,-88.2531 1133.1824,-95.2456"/>
</g>
<!-- LSZ&#45;&gt;Diagrams -->
<g id="edge14" class="edge">
<title>LSZ&#45;&gt;Diagrams</title>
<path fill="none" stroke="#000000" d="M834.4084,-290.3771C855.6342,-279.9808 883.762,-266.2039 906.8986,-254.8717"/>
<polygon fill="#000000" stroke="#000000" points="908.7054,-257.8841 916.1464,-250.3421 905.6262,-251.5976 908.7054,-257.8841"/>
</g>
<!-- SM -->
<g id="node26" class="node">
<title>SM</title>
<ellipse fill="none" stroke="#000000" cx="1403.5116" cy="-18" rx="66.685" ry="18"/>
<text text-anchor="middle" x="1403.5116" y="-13.8" font-family="Times,serif" font-size="14.00" fill="#000000">Standard Model</text>
</g>
<!-- QED&#45;&gt;SM -->
<g id="edge43" class="edge">
<title>QED&#45;&gt;SM</title>
<path fill="none" stroke="#000000" d="M1197.2261,-82.0196C1233.8698,-70.6474 1301.9707,-49.5127 1349.8766,-34.6453"/>
<polygon fill="#000000" stroke="#000000" points="1350.9602,-37.9738 1359.4734,-31.667 1348.8853,-31.2884 1350.9602,-37.9738"/>
</g>
<!-- Unitarity -->
<g id="node27" class="node">
<title>Unitarity</title>
<ellipse fill="none" stroke="#000000" cx="1588.5116" cy="-306" rx="42.0697" ry="18"/>
<text text-anchor="middle" x="1588.5116" y="-301.8" font-family="Times,serif" font-size="14.00" fill="#000000">Unitarity</text>
</g>
<!-- Unitarity&#45;&gt;Gauge -->
<g id="edge41" class="edge">
<title>Unitarity&#45;&gt;Gauge</title>
<path fill="none" stroke="#000000" d="M1567.2471,-290.3771C1554.0707,-280.6965 1536.9047,-268.0847 1522.1506,-257.2449"/>
<polygon fill="#000000" stroke="#000000" points="1523.9217,-254.2031 1513.7906,-251.1029 1519.7772,-259.8443 1523.9217,-254.2031"/>
</g>
<!-- Fields&#45;&gt;SpinStat -->
<g id="edge25" class="edge">
<title>Fields&#45;&gt;SpinStat</title>
<path fill="none" stroke="#000000" d="M468.8065,-367.6075C403.9038,-355.2777 295.263,-334.6388 221.7952,-320.6818"/>
<polygon fill="#000000" stroke="#000000" points="222.1478,-317.1863 211.6703,-318.7584 220.8413,-324.0633 222.1478,-317.1863"/>
</g>
<!-- Fields&#45;&gt;LSZ -->
<g id="edge9" class="edge">
<title>Fields&#45;&gt;LSZ</title>
<path fill="none" stroke="#000000" d="M571.7912,-365.5408C620.3349,-353.0133 695.122,-333.7134 746.3057,-320.5048"/>
<polygon fill="#000000" stroke="#000000" points="747.4048,-323.8359 756.213,-317.948 745.6556,-317.0579 747.4048,-323.8359"/>
</g>
<!-- Bosons&#45;&gt;QED -->
<g id="edge34" class="edge">
<title>Bosons&#45;&gt;QED</title>
<path fill="none" stroke="#000000" d="M229.0087,-150.0802C235.6112,-147.6706 242.7202,-145.4379 249.5116,-144 422.2334,-107.4319 980.0507,-93.8183 1132.6255,-90.7269"/>
<polygon fill="#000000" stroke="#000000" points="1132.9714,-94.2208 1142.8998,-90.5223 1132.832,-87.2222 1132.9714,-94.2208"/>
</g>
<!-- Fermions&#45;&gt;Dirac -->
<g id="edge32" class="edge">
<title>Fermions&#45;&gt;Dirac</title>
<path fill="none" stroke="#000000" d="M283.3732,-216.5708C289.1848,-208.0312 296.303,-197.5719 302.7471,-188.1029"/>
<polygon fill="#000000" stroke="#000000" points="305.6861,-190.0052 308.4189,-179.7689 299.8991,-186.0668 305.6861,-190.0052"/>
</g>
<!-- Anti -->
<g id="node39" class="node">
<title>Anti</title>
<ellipse fill="none" stroke="#000000" cx="459.5116" cy="-162" rx="58.9581" ry="18"/>
<text text-anchor="middle" x="459.5116" y="-157.8" font-family="Times,serif" font-size="14.00" fill="#000000">Anti&#45;particles</text>
</g>
<!-- Fermions&#45;&gt;Anti -->
<g id="edge31" class="edge">
<title>Fermions&#45;&gt;Anti</title>
<path fill="none" stroke="#000000" d="M303.83,-221.6228C333.9289,-210.0955 379.1342,-192.7829 413.0902,-179.7784"/>
<polygon fill="#000000" stroke="#000000" points="414.7049,-182.908 422.7917,-176.0629 412.2013,-176.371 414.7049,-182.908"/>
</g>
<!-- Spin&#45;&gt;Dirac -->
<g id="edge33" class="edge">
<title>Spin&#45;&gt;Dirac</title>
<path fill="none" stroke="#000000" d="M351.0322,-216.937C346.3886,-208.5785 340.6872,-198.3159 335.4742,-188.9325"/>
<polygon fill="#000000" stroke="#000000" points="338.3973,-186.9871 330.4812,-179.9453 332.2781,-190.3866 338.3973,-186.9871"/>
</g>
<!-- Scalar&#45;&gt;Anti -->
<g id="edge30" class="edge">
<title>Scalar&#45;&gt;Anti</title>
<path fill="none" stroke="#000000" d="M459.5116,-215.8314C459.5116,-208.131 459.5116,-198.9743 459.5116,-190.4166"/>
<polygon fill="#000000" stroke="#000000" points="463.0117,-190.4132 459.5116,-180.4133 456.0117,-190.4133 463.0117,-190.4132"/>
</g>
<!-- MinimalCoup&#45;&gt;QED -->
<g id="edge40" class="edge">
<title>MinimalCoup&#45;&gt;QED</title>
<path fill="none" stroke="#000000" d="M1232.9038,-144.5708C1221.7956,-134.6969 1207.7999,-122.2562 1195.9778,-111.7477"/>
<polygon fill="#000000" stroke="#000000" points="1198.0022,-108.8643 1188.2028,-104.8366 1193.3516,-114.0962 1198.0022,-108.8643"/>
</g>
<!-- SU2 -->
<g id="node34" class="node">
<title>SU2</title>
<ellipse fill="none" stroke="#000000" cx="1687.5116" cy="-90" rx="31.948" ry="18"/>
<text text-anchor="middle" x="1687.5116" y="-85.8" font-family="Times,serif" font-size="14.00" fill="#000000">SU(2)</text>
</g>
<!-- SU2&#45;&gt;SM -->
<g id="edge44" class="edge">
<title>SU2&#45;&gt;SM</title>
<path fill="none" stroke="#000000" d="M1661.9632,-79.2193C1655.3691,-76.654 1648.2337,-74.065 1641.5116,-72 1584.0373,-54.3438 1517.1507,-39.6693 1468.9469,-30.0962"/>
<polygon fill="#000000" stroke="#000000" points="1469.4419,-26.6265 1458.9545,-28.1315 1468.0914,-33.495 1469.4419,-26.6265"/>
</g>
<!-- SU3 -->
<g id="node35" class="node">
<title>SU3</title>
<ellipse fill="none" stroke="#000000" cx="1272.5116" cy="-90" rx="31.948" ry="18"/>
<text text-anchor="middle" x="1272.5116" y="-85.8" font-family="Times,serif" font-size="14.00" fill="#000000">SU(3)</text>
</g>
<!-- SU3&#45;&gt;SM -->
<g id="edge45" class="edge">
<title>SU3&#45;&gt;SM</title>
<path fill="none" stroke="#000000" d="M1295.3301,-77.4586C1314.5298,-66.906 1342.3957,-51.5904 1365.0371,-39.1463"/>
<polygon fill="#000000" stroke="#000000" points="1366.9839,-42.0702 1374.0617,-34.1862 1363.6122,-35.9357 1366.9839,-42.0702"/>
</g>
<!-- SymmBreak -->
<g id="node36" class="node">
<title>SymmBreak</title>
<ellipse fill="none" stroke="#000000" cx="1403.5116" cy="-90" rx="81.6601" ry="18"/>
<text text-anchor="middle" x="1403.5116" y="-85.8" font-family="Times,serif" font-size="14.00" fill="#000000">Symmetry Breaking</text>
</g>
<!-- SymmBreak&#45;&gt;SM -->
<g id="edge47" class="edge">
<title>SymmBreak&#45;&gt;SM</title>
<path fill="none" stroke="#000000" d="M1403.5116,-71.8314C1403.5116,-64.131 1403.5116,-54.9743 1403.5116,-46.4166"/>
<polygon fill="#000000" stroke="#000000" points="1407.0117,-46.4132 1403.5116,-36.4133 1400.0117,-46.4133 1407.0117,-46.4132"/>
</g>
<!-- NonAbelian&#45;&gt;SM -->
<g id="edge46" class="edge">
<title>NonAbelian&#45;&gt;SM</title>
<path fill="none" stroke="#000000" d="M1628.8855,-143.9348C1629.3806,-123.7323 1626.8968,-91.3187 1608.5116,-72 1589.7704,-52.3072 1524.3929,-37.3602 1472.4445,-28.2395"/>
<polygon fill="#000000" stroke="#000000" points="1473.0315,-24.7892 1462.5838,-26.549 1471.8486,-31.6885 1473.0315,-24.7892"/>
</g>
<!-- Anomalies -->
<g id="node38" class="node">
<title>Anomalies</title>
<ellipse fill="none" stroke="#000000" cx="1551.5116" cy="-90" rx="48.3427" ry="18"/>
<text text-anchor="middle" x="1551.5116" y="-85.8" font-family="Times,serif" font-size="14.00" fill="#000000">Anomalies</text>
</g>
<!-- NonAbelian&#45;&gt;Anomalies -->
<g id="edge48" class="edge">
<title>NonAbelian&#45;&gt;Anomalies</title>
<path fill="none" stroke="#000000" d="M1608.7251,-144.2022C1599.0334,-135.0206 1587.0788,-123.6952 1576.6077,-113.7752"/>
<polygon fill="#000000" stroke="#000000" points="1578.9654,-111.1876 1569.2988,-106.851 1574.1512,-116.2693 1578.9654,-111.1876"/>
</g>
</g>
</svg>
