<?xml version="1.0" encoding="UTF-8" standalone="no"?>
<!DOCTYPE svg PUBLIC "-//W3C//DTD SVG 1.1//EN"
 "http://www.w3.org/Graphics/SVG/1.1/DTD/svg11.dtd">
<!-- Generated by graphviz version 2.40.1 (20161225.0304)
 -->
<!-- Title: %3 Pages: 1 -->
<svg width="2374pt" height="620pt"
 viewBox="0.00 0.00 2374.08 620.00" xmlns="http://www.w3.org/2000/svg" xmlns:xlink="http://www.w3.org/1999/xlink">
<g id="graph0" class="graph" transform="scale(1 1) rotate(0) translate(4 616)">
<title>%3</title>
<polygon fill="#ffffff" stroke="transparent" points="-4,4 -4,-616 2370.0772,-616 2370.0772,4 -4,4"/>
<!-- QM -->
<g id="node1" class="node">
<title>QM</title>
<ellipse fill="none" stroke="#000000" cx="1122.1597" cy="-594" rx="83.5722" ry="18"/>
<text text-anchor="middle" x="1122.1597" y="-589.8" font-family="Times,serif" font-size="14.00" fill="#000000">Quantum Mechanics</text>
</g>
<!-- Particles -->
<g id="node3" class="node">
<title>Particles</title>
<ellipse fill="none" stroke="#000000" cx="1216.1597" cy="-522" rx="114.9259" ry="18"/>
<text text-anchor="middle" x="1216.1597" y="-517.8" font-family="Times,serif" font-size="14.00" fill="#000000">Non&#45;conserved particle count</text>
</g>
<!-- QM&#45;&gt;Particles -->
<g id="edge1" class="edge">
<title>QM&#45;&gt;Particles</title>
<path fill="none" stroke="#000000" d="M1144.9145,-576.5708C1156.8597,-567.4213 1171.6822,-556.0679 1184.7088,-546.0901"/>
<polygon fill="#000000" stroke="#000000" points="1187.1509,-548.6283 1192.9614,-539.7689 1182.8943,-543.0711 1187.1509,-548.6283"/>
</g>
<!-- UncertaintyP -->
<g id="node2" class="node">
<title>UncertaintyP</title>
<ellipse fill="none" stroke="#000000" cx="1310.1597" cy="-594" rx="85.9775" ry="18"/>
<text text-anchor="middle" x="1310.1597" y="-589.8" font-family="Times,serif" font-size="14.00" fill="#000000">Uncertainty Principle</text>
</g>
<!-- UncertaintyP&#45;&gt;Particles -->
<g id="edge2" class="edge">
<title>UncertaintyP&#45;&gt;Particles</title>
<path fill="none" stroke="#000000" d="M1287.4049,-576.5708C1275.4597,-567.4213 1260.6372,-556.0679 1247.6106,-546.0901"/>
<polygon fill="#000000" stroke="#000000" points="1249.425,-543.0711 1239.3579,-539.7689 1245.1685,-548.6283 1249.425,-543.0711"/>
</g>
<!-- CreationAnn -->
<g id="node4" class="node">
<title>CreationAnn</title>
<ellipse fill="none" stroke="#000000" cx="1345.1597" cy="-450" rx="120.2555" ry="18"/>
<text text-anchor="middle" x="1345.1597" y="-445.8" font-family="Times,serif" font-size="14.00" fill="#000000">Creation annihilation operators</text>
</g>
<!-- Particles&#45;&gt;CreationAnn -->
<g id="edge3" class="edge">
<title>Particles&#45;&gt;CreationAnn</title>
<path fill="none" stroke="#000000" d="M1247.387,-504.5708C1264.6887,-494.914 1286.3889,-482.8023 1304.9476,-472.4439"/>
<polygon fill="#000000" stroke="#000000" points="1306.7467,-475.4481 1313.7728,-467.5182 1303.3351,-469.3358 1306.7467,-475.4481"/>
</g>
<!-- Fields -->
<g id="node30" class="node">
<title>Fields</title>
<ellipse fill="none" stroke="#000000" cx="1459.1597" cy="-378" rx="66.7022" ry="18"/>
<text text-anchor="middle" x="1459.1597" y="-373.8" font-family="Times,serif" font-size="14.00" fill="#000000">Quantum Fields</text>
</g>
<!-- CreationAnn&#45;&gt;Fields -->
<g id="edge6" class="edge">
<title>CreationAnn&#45;&gt;Fields</title>
<path fill="none" stroke="#000000" d="M1373.0472,-432.3868C1388.3977,-422.6918 1407.5987,-410.5648 1423.972,-400.2238"/>
<polygon fill="#000000" stroke="#000000" points="1426.149,-402.9885 1432.735,-394.6893 1422.4111,-397.0701 1426.149,-402.9885"/>
</g>
<!-- LG -->
<g id="node5" class="node">
<title>LG</title>
<ellipse fill="none" stroke="#000000" cx="1001.1597" cy="-306" rx="121.2158" ry="18"/>
<text text-anchor="middle" x="1001.1597" y="-301.8" font-family="Times,serif" font-size="14.00" fill="#000000">Lorentz Group Representations</text>
</g>
<!-- Spin -->
<g id="node33" class="node">
<title>Spin</title>
<ellipse fill="none" stroke="#000000" cx="1100.1597" cy="-234" rx="27" ry="18"/>
<text text-anchor="middle" x="1100.1597" y="-229.8" font-family="Times,serif" font-size="14.00" fill="#000000">Spin</text>
</g>
<!-- LG&#45;&gt;Spin -->
<g id="edge28" class="edge">
<title>LG&#45;&gt;Spin</title>
<path fill="none" stroke="#000000" d="M1025.6316,-288.2022C1040.1826,-277.6197 1058.6493,-264.1894 1073.56,-253.3453"/>
<polygon fill="#000000" stroke="#000000" points="1075.843,-256.0127 1081.8717,-247.3003 1071.7258,-250.3515 1075.843,-256.0127"/>
</g>
<!-- Scalar -->
<g id="node34" class="node">
<title>Scalar</title>
<ellipse fill="none" stroke="#000000" cx="1001.1597" cy="-234" rx="53.6543" ry="18"/>
<text text-anchor="middle" x="1001.1597" y="-229.8" font-family="Times,serif" font-size="14.00" fill="#000000">Scalar fields</text>
</g>
<!-- LG&#45;&gt;Scalar -->
<g id="edge29" class="edge">
<title>LG&#45;&gt;Scalar</title>
<path fill="none" stroke="#000000" d="M1001.1597,-287.8314C1001.1597,-280.131 1001.1597,-270.9743 1001.1597,-262.4166"/>
<polygon fill="#000000" stroke="#000000" points="1004.6598,-262.4132 1001.1597,-252.4133 997.6598,-262.4133 1004.6598,-262.4132"/>
</g>
<!-- Cluster -->
<g id="node6" class="node">
<title>Cluster</title>
<ellipse fill="none" stroke="#000000" cx="1475.1597" cy="-522" rx="126.0783" ry="18"/>
<text text-anchor="middle" x="1475.1597" y="-517.8" font-family="Times,serif" font-size="14.00" fill="#000000">Cluster Decomposition Principle</text>
</g>
<!-- Cluster&#45;&gt;CreationAnn -->
<g id="edge4" class="edge">
<title>Cluster&#45;&gt;CreationAnn</title>
<path fill="none" stroke="#000000" d="M1443.3581,-504.3868C1425.9166,-494.7269 1404.1159,-482.6527 1385.4891,-472.3363"/>
<polygon fill="#000000" stroke="#000000" points="1387.0766,-469.2146 1376.6329,-467.4313 1383.6851,-475.3382 1387.0766,-469.2146"/>
</g>
<!-- Diagrams -->
<g id="node7" class="node">
<title>Diagrams</title>
<ellipse fill="none" stroke="#000000" cx="1784.1597" cy="-234" rx="77.7927" ry="18"/>
<text text-anchor="middle" x="1784.1597" y="-229.8" font-family="Times,serif" font-size="14.00" fill="#000000">Feynman diagrams</text>
</g>
<!-- PathI -->
<g id="node8" class="node">
<title>PathI</title>
<ellipse fill="none" stroke="#000000" cx="1573.1597" cy="-306" rx="55.5751" ry="18"/>
<text text-anchor="middle" x="1573.1597" y="-301.8" font-family="Times,serif" font-size="14.00" fill="#000000">Path Integral</text>
</g>
<!-- PathI&#45;&gt;Diagrams -->
<g id="edge22" class="edge">
<title>PathI&#45;&gt;Diagrams</title>
<path fill="none" stroke="#000000" d="M1611.8603,-292.7941C1645.1703,-281.4277 1693.5728,-264.9112 1730.6008,-252.276"/>
<polygon fill="#000000" stroke="#000000" points="1731.9023,-255.5301 1740.2361,-248.9881 1729.6416,-248.9052 1731.9023,-255.5301"/>
</g>
<!-- Causality -->
<g id="node9" class="node">
<title>Causality</title>
<ellipse fill="none" stroke="#000000" cx="1030.1597" cy="-378" rx="43.5233" ry="18"/>
<text text-anchor="middle" x="1030.1597" y="-373.8" font-family="Times,serif" font-size="14.00" fill="#000000">Causality</text>
</g>
<!-- SpinStat -->
<g id="node11" class="node">
<title>SpinStat</title>
<ellipse fill="none" stroke="#000000" cx="1235.1597" cy="-306" rx="95.3644" ry="18"/>
<text text-anchor="middle" x="1235.1597" y="-301.8" font-family="Times,serif" font-size="14.00" fill="#000000">Spin&#45;Statistics Theorem</text>
</g>
<!-- Causality&#45;&gt;SpinStat -->
<g id="edge23" class="edge">
<title>Causality&#45;&gt;SpinStat</title>
<path fill="none" stroke="#000000" d="M1063.5527,-366.2717C1095.1097,-355.1883 1143.0249,-338.3595 1180.2119,-325.2987"/>
<polygon fill="#000000" stroke="#000000" points="1181.6297,-328.5104 1189.9049,-321.8944 1179.3101,-321.9059 1181.6297,-328.5104"/>
</g>
<!-- EnergyBound -->
<g id="node10" class="node">
<title>EnergyBound</title>
<ellipse fill="none" stroke="#000000" cx="1233.1597" cy="-378" rx="141.1938" ry="18"/>
<text text-anchor="middle" x="1233.1597" y="-373.8" font-family="Times,serif" font-size="14.00" fill="#000000">Energy must be bounded from below</text>
</g>
<!-- EnergyBound&#45;&gt;SpinStat -->
<g id="edge24" class="edge">
<title>EnergyBound&#45;&gt;SpinStat</title>
<path fill="none" stroke="#000000" d="M1233.6644,-359.8314C1233.8783,-352.131 1234.1326,-342.9743 1234.3703,-334.4166"/>
<polygon fill="#000000" stroke="#000000" points="1237.8691,-334.5066 1234.6482,-324.4133 1230.8718,-334.3122 1237.8691,-334.5066"/>
</g>
<!-- Bosons -->
<g id="node31" class="node">
<title>Bosons</title>
<ellipse fill="none" stroke="#000000" cx="1287.1597" cy="-234" rx="36.3078" ry="18"/>
<text text-anchor="middle" x="1287.1597" y="-229.8" font-family="Times,serif" font-size="14.00" fill="#000000">Bosons</text>
</g>
<!-- SpinStat&#45;&gt;Bosons -->
<g id="edge26" class="edge">
<title>SpinStat&#45;&gt;Bosons</title>
<path fill="none" stroke="#000000" d="M1248.2815,-287.8314C1254.455,-279.2835 1261.9244,-268.9412 1268.6596,-259.6156"/>
<polygon fill="#000000" stroke="#000000" points="1271.5627,-261.5738 1274.5802,-251.4177 1265.8879,-257.4753 1271.5627,-261.5738"/>
</g>
<!-- Fermions -->
<g id="node32" class="node">
<title>Fermions</title>
<ellipse fill="none" stroke="#000000" cx="1189.1597" cy="-234" rx="43.5319" ry="18"/>
<text text-anchor="middle" x="1189.1597" y="-229.8" font-family="Times,serif" font-size="14.00" fill="#000000">Fermions</text>
</g>
<!-- SpinStat&#45;&gt;Fermions -->
<g id="edge27" class="edge">
<title>SpinStat&#45;&gt;Fermions</title>
<path fill="none" stroke="#000000" d="M1223.5519,-287.8314C1218.1465,-279.3707 1211.6179,-269.1521 1205.7078,-259.9014"/>
<polygon fill="#000000" stroke="#000000" points="1208.6211,-257.9603 1200.2877,-251.4177 1202.7222,-261.7291 1208.6211,-257.9603"/>
</g>
<!-- Lagrangian -->
<g id="node12" class="node">
<title>Lagrangian</title>
<ellipse fill="none" stroke="#000000" cx="1635.1597" cy="-378" rx="90.7798" ry="18"/>
<text text-anchor="middle" x="1635.1597" y="-373.8" font-family="Times,serif" font-size="14.00" fill="#000000">Lagrangian Mechanics</text>
</g>
<!-- Lagrangian&#45;&gt;Diagrams -->
<g id="edge15" class="edge">
<title>Lagrangian&#45;&gt;Diagrams</title>
<path fill="none" stroke="#000000" d="M1646.3797,-360.0592C1658.9441,-340.8441 1680.6494,-310.1329 1704.1597,-288 1716.7895,-276.1101 1732.2858,-265.0065 1746.2654,-255.9973"/>
<polygon fill="#000000" stroke="#000000" points="1748.1333,-258.9572 1754.7345,-250.6701 1744.4062,-253.0319 1748.1333,-258.9572"/>
</g>
<!-- Lagrangian&#45;&gt;PathI -->
<g id="edge21" class="edge">
<title>Lagrangian&#45;&gt;PathI</title>
<path fill="none" stroke="#000000" d="M1619.8338,-360.2022C1612.2698,-351.4182 1603.0161,-340.672 1594.749,-331.0714"/>
<polygon fill="#000000" stroke="#000000" points="1597.2728,-328.6385 1588.0953,-323.3446 1591.9684,-333.2061 1597.2728,-328.6385"/>
</g>
<!-- Noether -->
<g id="node14" class="node">
<title>Noether</title>
<ellipse fill="none" stroke="#000000" cx="1425.1597" cy="-306" rx="72.6277" ry="18"/>
<text text-anchor="middle" x="1425.1597" y="-301.8" font-family="Times,serif" font-size="14.00" fill="#000000">Noether Theorem</text>
</g>
<!-- Lagrangian&#45;&gt;Noether -->
<g id="edge19" class="edge">
<title>Lagrangian&#45;&gt;Noether</title>
<path fill="none" stroke="#000000" d="M1589.5928,-362.3771C1556.6551,-351.0841 1512.0831,-335.8023 1477.6534,-323.9978"/>
<polygon fill="#000000" stroke="#000000" points="1478.3695,-320.5434 1467.7749,-320.6109 1476.0992,-327.1651 1478.3695,-320.5434"/>
</g>
<!-- CFT -->
<g id="node13" class="node">
<title>CFT</title>
<ellipse fill="none" stroke="#000000" cx="1573.1597" cy="-450" rx="90.0351" ry="18"/>
<text text-anchor="middle" x="1573.1597" y="-445.8" font-family="Times,serif" font-size="14.00" fill="#000000">Classical Field Theory</text>
</g>
<!-- CFT&#45;&gt;Fields -->
<g id="edge5" class="edge">
<title>CFT&#45;&gt;Fields</title>
<path fill="none" stroke="#000000" d="M1545.8538,-432.7542C1530.403,-422.9958 1510.9135,-410.6866 1494.3287,-400.212"/>
<polygon fill="#000000" stroke="#000000" points="1495.7817,-396.9901 1485.4578,-394.6094 1492.0438,-402.9086 1495.7817,-396.9901"/>
</g>
<!-- Charge -->
<g id="node22" class="node">
<title>Charge</title>
<ellipse fill="none" stroke="#000000" cx="1401.1597" cy="-234" rx="35.4772" ry="18"/>
<text text-anchor="middle" x="1401.1597" y="-229.8" font-family="Times,serif" font-size="14.00" fill="#000000">Charge</text>
</g>
<!-- Noether&#45;&gt;Charge -->
<g id="edge20" class="edge">
<title>Noether&#45;&gt;Charge</title>
<path fill="none" stroke="#000000" d="M1419.1035,-287.8314C1416.4399,-279.8406 1413.2536,-270.2819 1410.3102,-261.4514"/>
<polygon fill="#000000" stroke="#000000" points="1413.6136,-260.2934 1407.1308,-251.9134 1406.9728,-262.5071 1413.6136,-260.2934"/>
</g>
<!-- CrossSec -->
<g id="node15" class="node">
<title>CrossSec</title>
<ellipse fill="none" stroke="#000000" cx="1926.1597" cy="-306" rx="62.3672" ry="18"/>
<text text-anchor="middle" x="1926.1597" y="-301.8" font-family="Times,serif" font-size="14.00" fill="#000000">Cross Sections</text>
</g>
<!-- SMatrix -->
<g id="node16" class="node">
<title>SMatrix</title>
<ellipse fill="none" stroke="#000000" cx="1785.1597" cy="-378" rx="41.1093" ry="18"/>
<text text-anchor="middle" x="1785.1597" y="-373.8" font-family="Times,serif" font-size="14.00" fill="#000000">S&#45;matrix</text>
</g>
<!-- SMatrix&#45;&gt;Diagrams -->
<g id="edge16" class="edge">
<title>SMatrix&#45;&gt;Diagrams</title>
<path fill="none" stroke="#000000" d="M1756.9908,-364.7412C1741.2718,-355.6805 1723.1026,-342.0371 1714.1597,-324 1707.0524,-309.6652 1707.1016,-302.3591 1714.1597,-288 1720.4798,-275.1424 1731.4975,-264.4818 1742.9469,-256.1255"/>
<polygon fill="#000000" stroke="#000000" points="1744.9954,-258.9652 1751.2991,-250.4496 1741.0609,-253.1755 1744.9954,-258.9652"/>
</g>
<!-- SMatrix&#45;&gt;CrossSec -->
<g id="edge8" class="edge">
<title>SMatrix&#45;&gt;CrossSec</title>
<path fill="none" stroke="#000000" d="M1812.0126,-364.2879C1832.892,-353.6261 1862.1922,-338.6643 1885.8788,-326.5689"/>
<polygon fill="#000000" stroke="#000000" points="1887.6677,-329.5855 1894.982,-321.9205 1884.4842,-323.3512 1887.6677,-329.5855"/>
</g>
<!-- LSZ -->
<g id="node24" class="node">
<title>LSZ</title>
<ellipse fill="none" stroke="#000000" cx="1784.1597" cy="-306" rx="61.3722" ry="18"/>
<text text-anchor="middle" x="1784.1597" y="-301.8" font-family="Times,serif" font-size="14.00" fill="#000000">LSZ reduction</text>
</g>
<!-- SMatrix&#45;&gt;LSZ -->
<g id="edge7" class="edge">
<title>SMatrix&#45;&gt;LSZ</title>
<path fill="none" stroke="#000000" d="M1784.9073,-359.8314C1784.8004,-352.131 1784.6732,-342.9743 1784.5544,-334.4166"/>
<polygon fill="#000000" stroke="#000000" points="1788.0541,-334.3637 1784.4154,-324.4133 1781.0547,-334.4609 1788.0541,-334.3637"/>
</g>
<!-- Prop -->
<g id="node17" class="node">
<title>Prop</title>
<ellipse fill="none" stroke="#000000" cx="2090.1597" cy="-306" rx="84.0654" ry="18"/>
<text text-anchor="middle" x="2090.1597" y="-301.8" font-family="Times,serif" font-size="14.00" fill="#000000">Feynman Propagator</text>
</g>
<!-- Prop&#45;&gt;Diagrams -->
<g id="edge13" class="edge">
<title>Prop&#45;&gt;Diagrams</title>
<path fill="none" stroke="#000000" d="M2033.3206,-292.6261C1981.0091,-280.3175 1903.4767,-262.0746 1848.8212,-249.2145"/>
<polygon fill="#000000" stroke="#000000" points="1849.4291,-245.762 1838.8932,-246.8785 1847.8258,-252.5759 1849.4291,-245.762"/>
</g>
<!-- TimeOrd -->
<g id="node18" class="node">
<title>TimeOrd</title>
<ellipse fill="none" stroke="#000000" cx="2146.1597" cy="-378" rx="63.1639" ry="18"/>
<text text-anchor="middle" x="2146.1597" y="-373.8" font-family="Times,serif" font-size="14.00" fill="#000000">Time&#45;Ordering</text>
</g>
<!-- TimeOrd&#45;&gt;Diagrams -->
<g id="edge18" class="edge">
<title>TimeOrd&#45;&gt;Diagrams</title>
<path fill="none" stroke="#000000" d="M2163.1973,-360.6334C2180.3217,-341.0717 2201.7232,-309.2451 2183.1597,-288 2162.8378,-264.7425 1980.4116,-247.8608 1869.3877,-239.6362"/>
<polygon fill="#000000" stroke="#000000" points="1869.4344,-236.1304 1859.2056,-238.8913 1868.9236,-243.1117 1869.4344,-236.1304"/>
</g>
<!-- TimeOrd&#45;&gt;Prop -->
<g id="edge11" class="edge">
<title>TimeOrd&#45;&gt;Prop</title>
<path fill="none" stroke="#000000" d="M2132.317,-360.2022C2125.6534,-351.6348 2117.5382,-341.2009 2110.2138,-331.7839"/>
<polygon fill="#000000" stroke="#000000" points="2112.9394,-329.5873 2104.0372,-323.8425 2107.4139,-333.8849 2112.9394,-329.5873"/>
</g>
<!-- Wick -->
<g id="node19" class="node">
<title>Wick</title>
<ellipse fill="none" stroke="#000000" cx="2298.1597" cy="-306" rx="67.8352" ry="18"/>
<text text-anchor="middle" x="2298.1597" y="-301.8" font-family="Times,serif" font-size="14.00" fill="#000000">Wick&#39;s Theorem</text>
</g>
<!-- TimeOrd&#45;&gt;Wick -->
<g id="edge12" class="edge">
<title>TimeOrd&#45;&gt;Wick</title>
<path fill="none" stroke="#000000" d="M2178.7675,-362.5542C2201.1772,-351.9391 2231.1564,-337.7384 2255.4673,-326.2227"/>
<polygon fill="#000000" stroke="#000000" points="2257.279,-329.2374 2264.8181,-321.7934 2254.2824,-322.9112 2257.279,-329.2374"/>
</g>
<!-- TimeOrd&#45;&gt;LSZ -->
<g id="edge10" class="edge">
<title>TimeOrd&#45;&gt;LSZ</title>
<path fill="none" stroke="#000000" d="M2091.2405,-368.9015C2032.5748,-358.9276 1936.9703,-341.9413 1855.1597,-324 1850.164,-322.9044 1844.9857,-321.7088 1839.8053,-320.4717"/>
<polygon fill="#000000" stroke="#000000" points="1840.4323,-317.0222 1829.8881,-318.0567 1838.7761,-323.8234 1840.4323,-317.0222"/>
</g>
<!-- Wick&#45;&gt;Diagrams -->
<g id="edge17" class="edge">
<title>Wick&#45;&gt;Diagrams</title>
<path fill="none" stroke="#000000" d="M2247.1238,-294.0386C2236.902,-291.8573 2226.2148,-289.7283 2216.1597,-288 2094.8849,-267.1549 1953.1438,-250.9832 1866.0155,-241.9714"/>
<polygon fill="#000000" stroke="#000000" points="1866.2332,-238.4754 1855.9278,-240.9348 1865.5176,-245.4387 1866.2332,-238.4754"/>
</g>
<!-- Gauge -->
<g id="node20" class="node">
<title>Gauge</title>
<ellipse fill="none" stroke="#000000" cx="717.1597" cy="-234" rx="72.9218" ry="18"/>
<text text-anchor="middle" x="717.1597" y="-229.8" font-family="Times,serif" font-size="14.00" fill="#000000">Gauge Invariance</text>
</g>
<!-- Ward -->
<g id="node21" class="node">
<title>Ward</title>
<ellipse fill="none" stroke="#000000" cx="638.1597" cy="-162" rx="58.0427" ry="18"/>
<text text-anchor="middle" x="638.1597" y="-157.8" font-family="Times,serif" font-size="14.00" fill="#000000">Ward identity</text>
</g>
<!-- Gauge&#45;&gt;Ward -->
<g id="edge37" class="edge">
<title>Gauge&#45;&gt;Ward</title>
<path fill="none" stroke="#000000" d="M698.036,-216.5708C688.0412,-207.4616 675.6494,-196.1679 664.7367,-186.2221"/>
<polygon fill="#000000" stroke="#000000" points="666.8559,-183.4179 657.1073,-179.2687 662.1406,-188.5916 666.8559,-183.4179"/>
</g>
<!-- QED -->
<g id="node25" class="node">
<title>QED</title>
<ellipse fill="none" stroke="#000000" cx="900.1597" cy="-90" rx="28.0651" ry="18"/>
<text text-anchor="middle" x="900.1597" y="-85.8" font-family="Times,serif" font-size="14.00" fill="#000000">QED</text>
</g>
<!-- Gauge&#45;&gt;QED -->
<g id="edge38" class="edge">
<title>Gauge&#45;&gt;QED</title>
<path fill="none" stroke="#000000" d="M736.7293,-216.615C748.5116,-206.0916 763.7749,-192.3596 777.1597,-180 794.2517,-164.2172 796.812,-158.3037 815.1597,-144 832.494,-130.4863 853.3022,-117.2224 869.9919,-107.222"/>
<polygon fill="#000000" stroke="#000000" points="871.9639,-110.1221 878.792,-102.0211 868.4023,-104.0959 871.9639,-110.1221"/>
</g>
<!-- MinimalCoup -->
<g id="node35" class="node">
<title>MinimalCoup</title>
<ellipse fill="none" stroke="#000000" cx="900.1597" cy="-162" rx="75.898" ry="18"/>
<text text-anchor="middle" x="900.1597" y="-157.8" font-family="Times,serif" font-size="14.00" fill="#000000">Minimal Coupling</text>
</g>
<!-- Gauge&#45;&gt;MinimalCoup -->
<g id="edge40" class="edge">
<title>Gauge&#45;&gt;MinimalCoup</title>
<path fill="none" stroke="#000000" d="M755.9693,-218.7307C783.8029,-207.7797 821.504,-192.9465 851.3745,-181.1942"/>
<polygon fill="#000000" stroke="#000000" points="852.7509,-184.4138 860.7752,-177.4956 850.188,-177.8999 852.7509,-184.4138"/>
</g>
<!-- NonAbelian -->
<g id="node40" class="node">
<title>NonAbelian</title>
<ellipse fill="none" stroke="#000000" cx="109.1597" cy="-162" rx="109.3196" ry="18"/>
<text text-anchor="middle" x="109.1597" y="-157.8" font-family="Times,serif" font-size="14.00" fill="#000000">Non&#45;Abelian Gauge Theory</text>
</g>
<!-- Gauge&#45;&gt;NonAbelian -->
<g id="edge43" class="edge">
<title>Gauge&#45;&gt;NonAbelian</title>
<path fill="none" stroke="#000000" d="M649.2815,-227.421C554.5984,-218.0386 377.5669,-199.7508 227.1597,-180 217.7812,-178.7685 207.9959,-177.4039 198.2468,-175.9928"/>
<polygon fill="#000000" stroke="#000000" points="198.5207,-172.4956 188.1189,-174.5091 197.506,-179.4217 198.5207,-172.4956"/>
</g>
<!-- Charge&#45;&gt;QED -->
<g id="edge39" class="edge">
<title>Charge&#45;&gt;QED</title>
<path fill="none" stroke="#000000" d="M1385.6553,-217.5246C1364.9232,-196.6318 1326.0173,-161.255 1285.1597,-144 1222.9987,-117.7481 1023.0754,-99.5622 938.5081,-92.8571"/>
<polygon fill="#000000" stroke="#000000" points="938.5525,-89.35 928.3101,-92.06 938.007,-96.3287 938.5525,-89.35"/>
</g>
<!-- Dirac -->
<g id="node23" class="node">
<title>Dirac</title>
<ellipse fill="none" stroke="#000000" cx="1191.1597" cy="-162" rx="62.3154" ry="18"/>
<text text-anchor="middle" x="1191.1597" y="-157.8" font-family="Times,serif" font-size="14.00" fill="#000000">Dirac equation</text>
</g>
<!-- Dirac&#45;&gt;QED -->
<g id="edge36" class="edge">
<title>Dirac&#45;&gt;QED</title>
<path fill="none" stroke="#000000" d="M1144.1971,-150.0405C1136.1799,-148.0141 1127.9327,-145.9393 1120.1597,-144 1055.5122,-127.8715 980.0785,-109.4402 936.4483,-98.8178"/>
<polygon fill="#000000" stroke="#000000" points="937.1341,-95.3826 926.5901,-96.4188 935.4789,-102.1841 937.1341,-95.3826"/>
</g>
<!-- LSZ&#45;&gt;Diagrams -->
<g id="edge14" class="edge">
<title>LSZ&#45;&gt;Diagrams</title>
<path fill="none" stroke="#000000" d="M1784.1597,-287.8314C1784.1597,-280.131 1784.1597,-270.9743 1784.1597,-262.4166"/>
<polygon fill="#000000" stroke="#000000" points="1787.6598,-262.4132 1784.1597,-252.4133 1780.6598,-262.4133 1787.6598,-262.4132"/>
</g>
<!-- SM -->
<g id="node28" class="node">
<title>SM</title>
<ellipse fill="none" stroke="#000000" cx="394.1597" cy="-18" rx="66.685" ry="18"/>
<text text-anchor="middle" x="394.1597" y="-13.8" font-family="Times,serif" font-size="14.00" fill="#000000">Standard Model</text>
</g>
<!-- QED&#45;&gt;SM -->
<g id="edge44" class="edge">
<title>QED&#45;&gt;SM</title>
<path fill="none" stroke="#000000" d="M872.2342,-86.0264C794.9064,-75.0233 576.2676,-43.9126 463.4345,-27.8573"/>
<polygon fill="#000000" stroke="#000000" points="463.9076,-24.3894 453.5142,-26.4457 462.9214,-31.3196 463.9076,-24.3894"/>
</g>
<!-- QCD -->
<g id="node26" class="node">
<title>QCD</title>
<ellipse fill="none" stroke="#000000" cx="273.1597" cy="-90" rx="28.5583" ry="18"/>
<text text-anchor="middle" x="273.1597" y="-85.8" font-family="Times,serif" font-size="14.00" fill="#000000">QCD</text>
</g>
<!-- QCD&#45;&gt;SM -->
<g id="edge50" class="edge">
<title>QCD&#45;&gt;SM</title>
<path fill="none" stroke="#000000" d="M294.2363,-77.4586C311.6948,-67.07 336.911,-52.0653 357.6437,-39.7285"/>
<polygon fill="#000000" stroke="#000000" points="359.7097,-42.572 366.5136,-34.4506 356.1302,-36.5564 359.7097,-42.572"/>
</g>
<!-- ElectroWeak -->
<g id="node27" class="node">
<title>ElectroWeak</title>
<ellipse fill="none" stroke="#000000" cx="573.1597" cy="-90" rx="86.1849" ry="18"/>
<text text-anchor="middle" x="573.1597" y="-85.8" font-family="Times,serif" font-size="14.00" fill="#000000">Electro&#45;Weak Theory</text>
</g>
<!-- ElectroWeak&#45;&gt;SM -->
<g id="edge49" class="edge">
<title>ElectroWeak&#45;&gt;SM</title>
<path fill="none" stroke="#000000" d="M533.4338,-74.0209C506.1354,-63.0405 469.7785,-48.4165 441.0565,-36.8635"/>
<polygon fill="#000000" stroke="#000000" points="442.2166,-33.5577 431.6328,-33.073 439.6043,-40.052 442.2166,-33.5577"/>
</g>
<!-- Unitarity -->
<g id="node29" class="node">
<title>Unitarity</title>
<ellipse fill="none" stroke="#000000" cx="717.1597" cy="-306" rx="42.0697" ry="18"/>
<text text-anchor="middle" x="717.1597" y="-301.8" font-family="Times,serif" font-size="14.00" fill="#000000">Unitarity</text>
</g>
<!-- Unitarity&#45;&gt;Gauge -->
<g id="edge42" class="edge">
<title>Unitarity&#45;&gt;Gauge</title>
<path fill="none" stroke="#000000" d="M717.1597,-287.8314C717.1597,-280.131 717.1597,-270.9743 717.1597,-262.4166"/>
<polygon fill="#000000" stroke="#000000" points="720.6598,-262.4132 717.1597,-252.4133 713.6598,-262.4133 720.6598,-262.4132"/>
</g>
<!-- Fields&#45;&gt;SpinStat -->
<g id="edge25" class="edge">
<title>Fields&#45;&gt;SpinStat</title>
<path fill="none" stroke="#000000" d="M1415.9702,-364.1177C1381.1926,-352.9391 1331.9628,-337.1153 1293.6518,-324.801"/>
<polygon fill="#000000" stroke="#000000" points="1294.2522,-321.3177 1283.6609,-321.5897 1292.1101,-327.9819 1294.2522,-321.3177"/>
</g>
<!-- Fields&#45;&gt;LSZ -->
<g id="edge9" class="edge">
<title>Fields&#45;&gt;LSZ</title>
<path fill="none" stroke="#000000" d="M1509.4118,-365.956C1517.9956,-363.9394 1526.8289,-361.8897 1535.1597,-360 1599.5303,-345.3986 1673.4593,-329.4721 1723.9332,-318.7263"/>
<polygon fill="#000000" stroke="#000000" points="1724.9671,-322.0848 1734.0203,-316.5813 1723.511,-315.2379 1724.9671,-322.0848"/>
</g>
<!-- Bosons&#45;&gt;QED -->
<g id="edge35" class="edge">
<title>Bosons&#45;&gt;QED</title>
<path fill="none" stroke="#000000" d="M1287.5638,-215.804C1286.9587,-195.1659 1282.5704,-162.0453 1262.1597,-144 1214.738,-102.0742 1021.88,-92.6995 938.6751,-90.6035"/>
<polygon fill="#000000" stroke="#000000" points="938.6986,-87.1032 928.6208,-90.3726 938.5378,-94.1014 938.6986,-87.1032"/>
</g>
<!-- Fermions&#45;&gt;Dirac -->
<g id="edge32" class="edge">
<title>Fermions&#45;&gt;Dirac</title>
<path fill="none" stroke="#000000" d="M1189.6644,-215.8314C1189.8783,-208.131 1190.1326,-198.9743 1190.3703,-190.4166"/>
<polygon fill="#000000" stroke="#000000" points="1193.8691,-190.5066 1190.6482,-180.4133 1186.8718,-190.3122 1193.8691,-190.5066"/>
</g>
<!-- Anti -->
<g id="node42" class="node">
<title>Anti</title>
<ellipse fill="none" stroke="#000000" cx="1052.1597" cy="-162" rx="58.9581" ry="18"/>
<text text-anchor="middle" x="1052.1597" y="-157.8" font-family="Times,serif" font-size="14.00" fill="#000000">Anti&#45;particles</text>
</g>
<!-- Fermions&#45;&gt;Anti -->
<g id="edge31" class="edge">
<title>Fermions&#45;&gt;Anti</title>
<path fill="none" stroke="#000000" d="M1162.0929,-219.7751C1141.8058,-209.1133 1113.7522,-194.3698 1091.0625,-182.4453"/>
<polygon fill="#000000" stroke="#000000" points="1092.5042,-179.2491 1082.0239,-177.6951 1089.2476,-185.4455 1092.5042,-179.2491"/>
</g>
<!-- Spin&#45;&gt;Dirac -->
<g id="edge33" class="edge">
<title>Spin&#45;&gt;Dirac</title>
<path fill="none" stroke="#000000" d="M1117.7054,-220.1177C1130.0532,-210.348 1146.8855,-197.0301 1161.3219,-185.6079"/>
<polygon fill="#000000" stroke="#000000" points="1163.8224,-188.0925 1169.493,-179.1429 1159.479,-182.603 1163.8224,-188.0925"/>
</g>
<!-- Scalar&#45;&gt;Anti -->
<g id="edge30" class="edge">
<title>Scalar&#45;&gt;Anti</title>
<path fill="none" stroke="#000000" d="M1013.7664,-216.2022C1019.8189,-207.6576 1027.1864,-197.2564 1033.8429,-187.859"/>
<polygon fill="#000000" stroke="#000000" points="1036.7738,-189.7764 1039.698,-179.593 1031.0617,-185.7302 1036.7738,-189.7764"/>
</g>
<!-- MinimalCoup&#45;&gt;QED -->
<g id="edge41" class="edge">
<title>MinimalCoup&#45;&gt;QED</title>
<path fill="none" stroke="#000000" d="M900.1597,-143.8314C900.1597,-136.131 900.1597,-126.9743 900.1597,-118.4166"/>
<polygon fill="#000000" stroke="#000000" points="903.6598,-118.4132 900.1597,-108.4133 896.6598,-118.4133 903.6598,-118.4132"/>
</g>
<!-- U1 -->
<g id="node36" class="node">
<title>U1</title>
<ellipse fill="none" stroke="#000000" cx="741.1597" cy="-162" rx="27" ry="18"/>
<text text-anchor="middle" x="741.1597" y="-157.8" font-family="Times,serif" font-size="14.00" fill="#000000">U(1)</text>
</g>
<!-- U1&#45;&gt;QED -->
<g id="edge34" class="edge">
<title>U1&#45;&gt;QED</title>
<path fill="none" stroke="#000000" d="M763.6033,-151.8369C790.7155,-139.5596 836.5399,-118.809 867.5508,-104.7663"/>
<polygon fill="#000000" stroke="#000000" points="869.3906,-107.7754 877.0563,-100.4619 866.503,-101.3987 869.3906,-107.7754"/>
</g>
<!-- U1&#45;&gt;ElectroWeak -->
<g id="edge46" class="edge">
<title>U1&#45;&gt;ElectroWeak</title>
<path fill="none" stroke="#000000" d="M719.5848,-150.8824C714.8631,-148.5422 709.8685,-146.1367 705.1597,-144 678.5864,-131.9419 648.5038,-119.5413 623.7752,-109.6692"/>
<polygon fill="#000000" stroke="#000000" points="624.817,-106.317 614.2312,-105.8782 622.2328,-112.8226 624.817,-106.317"/>
</g>
<!-- SU2 -->
<g id="node37" class="node">
<title>SU2</title>
<ellipse fill="none" stroke="#000000" cx="530.1597" cy="-162" rx="31.948" ry="18"/>
<text text-anchor="middle" x="530.1597" y="-157.8" font-family="Times,serif" font-size="14.00" fill="#000000">SU(2)</text>
</g>
<!-- SU2&#45;&gt;ElectroWeak -->
<g id="edge45" class="edge">
<title>SU2&#45;&gt;ElectroWeak</title>
<path fill="none" stroke="#000000" d="M540.3501,-144.937C545.394,-136.4914 551.5988,-126.1019 557.2499,-116.6396"/>
<polygon fill="#000000" stroke="#000000" points="560.3198,-118.3253 562.4424,-107.9453 554.31,-114.7361 560.3198,-118.3253"/>
</g>
<!-- SU3 -->
<g id="node38" class="node">
<title>SU3</title>
<ellipse fill="none" stroke="#000000" cx="268.1597" cy="-162" rx="31.948" ry="18"/>
<text text-anchor="middle" x="268.1597" y="-157.8" font-family="Times,serif" font-size="14.00" fill="#000000">SU(3)</text>
</g>
<!-- SU3&#45;&gt;QCD -->
<g id="edge48" class="edge">
<title>SU3&#45;&gt;QCD</title>
<path fill="none" stroke="#000000" d="M269.4214,-143.8314C269.9561,-136.131 270.592,-126.9743 271.1863,-118.4166"/>
<polygon fill="#000000" stroke="#000000" points="274.6797,-118.6317 271.881,-108.4133 267.6965,-118.1467 274.6797,-118.6317"/>
</g>
<!-- SymmBreak -->
<g id="node39" class="node">
<title>SymmBreak</title>
<ellipse fill="none" stroke="#000000" cx="399.1597" cy="-162" rx="81.6601" ry="18"/>
<text text-anchor="middle" x="399.1597" y="-157.8" font-family="Times,serif" font-size="14.00" fill="#000000">Symmetry Breaking</text>
</g>
<!-- SymmBreak&#45;&gt;ElectroWeak -->
<g id="edge47" class="edge">
<title>SymmBreak&#45;&gt;ElectroWeak</title>
<path fill="none" stroke="#000000" d="M437.7759,-146.0209C463.3904,-135.4218 497.2094,-121.4277 524.6382,-110.0778"/>
<polygon fill="#000000" stroke="#000000" points="526.1478,-113.2411 534.0497,-106.1834 523.4713,-106.773 526.1478,-113.2411"/>
</g>
<!-- Higgs -->
<g id="node43" class="node">
<title>Higgs</title>
<ellipse fill="none" stroke="#000000" cx="394.1597" cy="-90" rx="74.9117" ry="18"/>
<text text-anchor="middle" x="394.1597" y="-85.8" font-family="Times,serif" font-size="14.00" fill="#000000">Higgs Mechanism</text>
</g>
<!-- SymmBreak&#45;&gt;Higgs -->
<g id="edge52" class="edge">
<title>SymmBreak&#45;&gt;Higgs</title>
<path fill="none" stroke="#000000" d="M397.898,-143.8314C397.3632,-136.131 396.7273,-126.9743 396.1331,-118.4166"/>
<polygon fill="#000000" stroke="#000000" points="399.6228,-118.1467 395.4384,-108.4133 392.6397,-118.6317 399.6228,-118.1467"/>
</g>
<!-- NonAbelian&#45;&gt;SM -->
<g id="edge51" class="edge">
<title>NonAbelian&#45;&gt;SM</title>
<path fill="none" stroke="#000000" d="M105.9679,-143.8878C103.5225,-123.642 103.1382,-91.1889 121.1597,-72 147.601,-43.8457 247.5038,-29.7955 318.7921,-23.2139"/>
<polygon fill="#000000" stroke="#000000" points="319.4405,-26.6701 329.0903,-22.2963 318.8191,-19.6977 319.4405,-26.6701"/>
</g>
<!-- Anomalies -->
<g id="node41" class="node">
<title>Anomalies</title>
<ellipse fill="none" stroke="#000000" cx="178.1597" cy="-90" rx="48.3427" ry="18"/>
<text text-anchor="middle" x="178.1597" y="-85.8" font-family="Times,serif" font-size="14.00" fill="#000000">Anomalies</text>
</g>
<!-- NonAbelian&#45;&gt;Anomalies -->
<g id="edge54" class="edge">
<title>NonAbelian&#45;&gt;Anomalies</title>
<path fill="none" stroke="#000000" d="M126.2159,-144.2022C134.7811,-135.2646 145.293,-124.2957 154.6144,-114.569"/>
<polygon fill="#000000" stroke="#000000" points="157.3827,-116.7388 161.7748,-107.0972 152.3288,-111.8955 157.3827,-116.7388"/>
</g>
<!-- Higgs&#45;&gt;SM -->
<g id="edge53" class="edge">
<title>Higgs&#45;&gt;SM</title>
<path fill="none" stroke="#000000" d="M394.1597,-71.8314C394.1597,-64.131 394.1597,-54.9743 394.1597,-46.4166"/>
<polygon fill="#000000" stroke="#000000" points="397.6598,-46.4132 394.1597,-36.4133 390.6598,-46.4133 397.6598,-46.4132"/>
</g>
</g>
</svg>
